<?xml version="1.0" encoding="utf-8"?>
<!-- Generator: Adobe Illustrator 22.0.1, SVG Export Plug-In . SVG Version: 6.00 Build 0)  -->
<svg version="1.1" id="Layer_1" xmlns="http://www.w3.org/2000/svg" xmlns:xlink="http://www.w3.org/1999/xlink" x="0px" y="0px"
	 viewBox="0 0 792 107.5" style="enable-background:new 0 0 792 107.5;" xml:space="preserve">
<style type="text/css">
	.st0{fill:#9B712A;}
</style>
<g>
	<g>
		<g>
			<path class="st0" d="M366.3,74.9c-8,7.8-11.4,8.4-17,2.8c-2.2,1.9-4.4,3.8-7.7,3.7c-3.6-0.1-5.2-2.3-6.1-5.2
				c-2.2,1.6-4.1,3.5-6.5,4.5c-1.7,0.8-3.9,0.8-5.8,0.5c-2.5-0.4-4.2-3.4-3.2-6.1c1-2.7,2.8-5.2,4.2-7.7c0.9-1.6,2.2-3,2.9-4.6
				c0.3-0.7,0.1-2.1-0.4-2.6c-0.5-0.5-2.1-0.6-2.6-0.1c-2.5,2.3-5.1,4.7-7.2,7.4c-2.7,3.6-5,7.6-7.4,11.5c-0.9,1.5-1.9,2.4-3.8,2.3
				c-1.4-0.1-2.2-0.5-1.9-1.6c-2.2,0.5-4.4,1.3-6.7,1.6c-2.8,0.4-4.6-1-5.7-3.9c-1,0.8-1.9,1.4-2.7,2.2c-2,1.8-4.4,2.1-6.8,1.6
				c-2.2-0.4-3.8-1.8-4.1-4.3c-0.1-0.6-0.2-1.1-0.4-1.8c-1.9,1.6-3.5,3.1-5.4,4.3c-1.2,0.8-2.6,1.3-4,1.5c-4.5,0.6-8.6-3.6-7.1-8
				c1.5-4.6,3.5-9.1,5.9-13.2c6-10.3,12.4-20.3,18.5-30.6c1.7-2.9,3-6.1,4.1-9.3c0.6-1.7,0.8-3.6,0.8-5.3c0-3.5-2.9-5.4-5.9-3.6
				c-2.5,1.4-5.1,3.3-6.7,5.6c-5.2,8-10.1,16.2-14.8,24.6c-7.2,12.7-14.2,25.6-21.2,38.5c-1.5,2.8-3.9,1.6-6.6,1.9
				c0.4-1.3,0.5-2.4,1-3.2c9.3-17.1,18.7-34.3,27.9-51.4c1.6-2.9,3-6,4.1-9.1c0.6-1.9,0.7-4.1,0.4-6c-0.4-3.1-3.1-4.5-6.1-3.3
				c-3.8,1.5-6.3,4.5-8.3,7.9c-4.7,8-9.1,16.1-13.6,24.2c-7.2,13-14.4,26-21.6,39.1c-0.9,1.7-4.5,2.8-5.9,1.8
				c-0.4-0.3-0.4-1.4-0.2-1.9c0.9-2,2-3.9,3-5.9c9.5-17.5,19-34.9,28.4-52.5c1.4-2.6,2.2-5.6,2.9-8.6c1.1-4.9-3.4-8.9-8.3-7.8
				c-3.6,0.8-6.6,2.5-9.4,4.8c-5,4.3-8.8,9.4-10.9,15.7c-1.2,3.4-0.8,5.8,1.1,6.8c1.7,1,4.2,0.3,6.2-2.5c2.4-3.3,4.4-6.9,6.6-10.3
				c0.4-0.7,1.1-1.1,1.7-1.7c0.1,0.8,0.4,1.8,0.2,2.5c-1.9,4.8-4.3,9.2-8.3,12.6c-2.7,2.3-6.2,2.6-8.6,1.1c-2.1-1.3-3.7-5.3-2.8-8.2
				c3.1-11.3,10.1-19.2,21.4-22.5c4.4-1.3,9.2-1.2,12.7,2.5c1.5,1.5,2.2,3.8,3.2,5.8c0.3,0.6,0.3,1.4,0.5,2.7c0.9-1,1.5-1.6,2-2.3
				c2.4-2.9,5.2-5.2,9.2-5.9c5.2-0.9,9.2,2.3,9.3,7.6c0,1.4,0,2.8,0.5,4.5c0.5-0.6,1-1.2,1.5-1.8c2.7-3.4,5.7-6.5,10.2-7.6
				c5.5-1.4,9.4,1.6,9.7,7.3c0.3,7.2-2.6,13.4-6,19.3c-5.6,9.5-11.6,18.9-17.3,28.4c-2.1,3.5-3.8,7.2-5.4,11c-0.4,1-0.2,2.8,0.5,3.7
				c1.1,1.4,3.1,0.9,4.1-0.1c2.8-2.8,5.9-5.6,7.7-9c3.4-6.5,7.9-11.3,15.3-12.6c2.5-0.5,4.4,0.3,6.1,2.4c1.7-2.9,4.3-1.7,7-1.8
				c-0.4,1.1-0.7,2-1.1,2.7c-2.7,4.9-5.4,9.7-8.1,14.5c-0.2,0.4-0.6,0.8-0.6,1.2c-0.1,1.1,0,2.3,0,3.4c1.2-0.1,2.7,0.3,3.5-0.3
				c4-2.6,7-6.2,9.3-10.4c1.5-2.6,2.8-5.4,4.2-8.1c1.9-3.5,2.3-3.6,6.6-2.8c-0.3,1.1-0.5,2.1-0.9,3.5c0.7-0.4,1-0.7,1.4-0.9
				c1.3-0.8,2.5-1.8,3.9-2.3c2.2-0.8,4.6-0.9,6.2,1.2c1.6,2,1.3,4.4,0.2,6.4c-1.6,3-3.6,5.8-5.3,8.7c-0.9,1.5-2.6,3.3-0.9,4.9
				c1.7,1.6,3.4-0.1,4.7-1.3c2.8-2.4,5.2-5.1,6.8-8.6c2.7-6.1,7.1-10.7,14-12.3c3.3-0.7,4.6-0.4,7.2,2.2c0.8-1.2,1.5-2.4,2.2-3.6
				c2.5-4.4,5.1-8.8,7.5-13.3c0.9-1.7,2.2-2.4,4-2.3c2.3,0.1,2.7,0.7,1.6,2.8c-2,3.7-4.1,7.3-6.1,10.9c-3.9,6.9-7.7,13.8-11.5,20.7
				c-0.8,1.5-2.4,3.4-0.5,4.9c1.8,1.5,3.5-0.1,4.8-1.3c2.9-2.6,5.6-5.3,7.1-9.3c2.3-6.2,6.8-10.3,13.4-11.9c3-0.7,5.7,0.1,6.5,1.9
				c1,2.1,0,5.4-2.8,6.8c-3.1,1.5-6.5,2.5-9.8,3.4c-1.3,0.4-2.1,1-2.5,2.2c-0.1,0.2-0.1,0.4-0.2,0.7c-0.8,2.7-1.1,5.3,1.4,7.3
				c1.8,1.4,5.3,0.9,7.8-1.1c4.6-3.6,8-8.1,10.9-13c0.6-1.1,1.2-2.3,1.9-3.4c1.1-1.8,2.3-3.4,0.2-5.5c-0.7-0.7-0.5-2.8-0.1-4
				c0.6-1.6,2.1-2.5,3.9-2c1.8,0.6,2.2,2.1,2.2,3.8c0,0.7-0.2,1.5-0.4,2.5c0.9,0,1.5,0,2.2,0c0.2,0,0.5-0.2,0.7-0.1
				c1.9,0.3,4.3,0,5.4,1.1c1.6,1.6,0.7,4-0.5,5.9c-2.2,3.5-4.5,6.8-6.8,10.3c-0.5,0.8-1.2,1.7-1.3,2.6c-0.2,0.9-0.2,2.3,0.4,2.9
				c0.6,0.6,2.2,0.9,2.8,0.5c2.3-1.6,4.3-3.4,6.4-5.3c0.7-0.6,1.2-1.5,2.1-2.6c0.1,1.2,0.2,1.8,0.1,2.3c-0.8,4.5-9.2,9.4-13.3,7.8
				c-3.1-1.2-4.4-4.5-2.7-8.2c1.3-2.8,3.1-5.4,4.8-8c0.6-0.9,1.3-1.7,1.8-2.6c0.7-1.4,2.4-2.8,0.6-4.4c-1.2-1-4.2,0.2-5.3,1.8
				c-3.3,5.1-6.4,10.5-10.2,15.3c-2,2.5-5,4.5-8,5.8c-2.2,0.9-5.1,0.8-7.5,0.3C368.4,80.6,367.1,77.9,366.3,74.9z M285.4,79.1
				c0.7-0.5,2.1-1.1,3.1-2c4.3-4.2,6.7-9.7,9.3-15c0.3-0.7,0.2-2.4-0.2-2.6c-1.1-0.6-2.6-1.1-3.6-0.7c-5.2,1.9-11.9,12.1-11.8,17.6
				C282.2,78,283,79.1,285.4,79.1z M340.5,75.3c-0.1,3.7,1.7,4.8,4.2,3.3c0.8-0.5,1.7-1.1,2.2-1.9c3.1-4.8,6.1-9.5,9-14.4
				c0.4-0.7,0.4-2.2-0.1-2.9c-0.8-1-2.2-1.7-3.6-0.8c-1.6,1-3.2,2-4.5,3.4C344,66,341.2,70.6,340.5,75.3z M374.4,66
				c1.6-0.3,2.7-0.2,3.5-0.6c2.3-1.2,4.5-2.5,6.7-4c0.4-0.3,0.5-1.8,0.1-2.1c-0.5-0.5-1.6-0.9-2.3-0.7
				C378.8,59.7,376.5,62.3,374.4,66z M396.2,55.1c0.4-0.1,0.8-0.1,1.2-0.2c0-1,0-2.1,0-3.1c-0.5,0.1-1.5,0.3-1.5,0.4
				C395.9,53.2,396.1,54.1,396.2,55.1z"/>
			<path class="st0" d="M101.1,57c-0.4,1-0.6,1.8-1,2.6c-2.5,4.5-5,9-7.5,13.5c-0.6,1-1.1,2-1.5,3.1c-0.7,2,0.7,3.6,2.7,2.7
				c1.8-0.8,3.4-2,4.8-3.3c4.5-4.5,8-9.7,10.9-15.3c2.1-4,2.6-4.1,7.6-3.2c-0.4,0.9-0.6,1.8-1,2.6c-2.7,4.8-5.4,9.6-8.1,14.5
				c-0.8,1.4-2,3.2-0.3,4.5c1.6,1.3,3.2,0,4.5-1.1c4.2-3.6,7.7-7.7,10.3-12.6c5-9.7,9.7-19.6,16.5-28.3c1.6-2,3.5-3.9,5.6-5.3
				c1.3-0.9,3.3-1,5-1c1.8,0,2.2,1.6,2.3,3.2c0.1,3.6-1.8,6.3-4.1,8.6c-3.9,4-8.1,7.7-12.2,11.6c-0.9,0.8-1.9,1.6-2.4,2.7
				c-3,5.7-6,11.4-8.9,17.2c-0.3,0.7-0.8,1.4-0.8,2.1c0,0.9,0,2.1,0.6,2.6c0.4,0.5,1.8,0.7,2.4,0.4c4.3-2.1,8.1-4.7,9.8-9.5
				c2.3-6.7,6.7-11.2,13.7-13c3.1-0.8,5.8,0.1,6.6,2.1c0.8,2.1-0.2,5.2-2.9,6.5c-3.1,1.5-6.4,2.5-9.8,3.4c-1.3,0.4-2.2,0.9-2.5,2.2
				c-0.3,1.4-0.7,2.8-0.6,4.2c0.1,3.4,3,5.4,6.3,4.6c5.7-1.5,9.2-5.8,12.5-10.2c2.1-2.7,3.6-5.8,5.3-8.8c2.3-4,2.4-4.1,7.7-3.4
				c-0.3,0.9-0.5,1.9-0.9,2.6c-2.7,4.8-5.4,9.5-8.1,14.2c-0.4,0.7-0.9,1.3-0.9,2c-0.1,0.7,0.1,1.8,0.5,2.2c0.5,0.5,1.7,0.8,2.2,0.5
				c1.7-1,3.6-2,4.6-3.5c3.4-4.8,6.6-9.8,9.7-14.9c2.3-3.8,2.7-4.1,7.8-3.1c-3.8,8.3-8.9,15.6-13,23.7c5.8-1.6,10.4-5,14.4-9.5
				c0.6,2.4,0.4,2.7-1.2,4.4c-3.9,4.1-9.1,6.1-14.2,8.5c-1.1,0.5-2.1,1.4-2.8,2.4c-3.4,4.2-6.4,8.6-10,12.7
				c-2.8,3.2-6.6,4.4-10.8,4.4c-2.3,0-4.3-0.6-5.3-2.8c-1-2.1-0.5-4.2,0.7-6c2.3-3.4,5.9-4.9,9.5-6.3c3-1.2,6.1-2.3,9.2-3.3
				c2.6-0.8,3.7-2.8,4.7-4.8c-2.4,0.3-4.7,1-7.1,1c-3.1-0.1-3.9-2.7-4.2-5.7c-3.5,3.4-7.1,6.1-11.7,6.1c-4.7,0.1-8.6-1.2-9.9-6.6
				c-2,1.6-3.7,3.2-5.6,4.5c-1.3,0.8-2.9,1.5-4.4,1.7c-4.9,0.6-6.4-0.7-7.3-5.9c-1.6,1.4-3.1,2.8-4.6,4.2c-2.3,1.9-5,2.3-7.7,1.7
				c-1.3-0.3-2.4-1.8-3.4-2.9c-0.5-0.5-0.5-1.4-0.6-1.8c-2.7,1.6-5.1,3.8-8,4.7c-3.9,1.3-5.9,0.1-8.1-3.6c-0.7,0.5-1.5,1-2.1,1.6
				c-2,2-4.5,2.5-7.1,2.1c-2.7-0.4-3.8-1.9-4.8-6.2c-1.5,1.4-2.9,2.7-4.3,4c-2.2,2-4.9,2.6-7.8,2.3c-2.8-0.3-4.7-2.5-4.9-5.4
				c-0.3-3.2,0.5-6.2,2-9c2.8-5,5.8-10,8.5-15c1.9-3.4,3.1-7.1,2.3-11.1c-0.6-2.9-2.2-4.7-4.9-5.8c-1.6-0.7-2.4-0.3-3.2,1.3
				c-3.7,7.5-7.3,15-11.2,22.4c-3.6,6.8-7.7,13.3-13.8,18.2c-6.7,5.5-14.4,6.9-22.7,4.5c-6.9-2-10.2-11.1-6.4-17.1
				c2.1-3.3,7.5-5.4,11.1-4.1c1.9,0.7,3.4,2.1,3.4,4.4c0,0.7-0.5,1.4-0.7,2.1c-0.5-0.5-1.3-1-1.5-1.6c-0.5-1.9-1.8-2.9-3.5-3
				c-1-0.1-2.1,0.2-3,0.7C5.6,65.4,4.9,73.4,10,77.2c4.8,3.6,10.9,4.1,15.9,0.3c3.7-2.8,7.3-6.1,9.9-9.9
				c5.4-8.2,10.1-16.8,14.9-25.3c4.4-7.7,8.6-15.5,12.9-23.3c0.3-0.5,0.6-1,0.9-1.7c-0.4-0.3-0.6-0.6-0.9-0.7
				c-5.4-0.7-9.7-3.6-14.3-6.2c-3.7-2.2-7.4-4.7-11.4-6c-7.8-2.6-18,2.8-21.2,9.9c-1,2.3-1.7,4.8-1.9,7.3c-0.3,3.9,1.7,6.7,5.1,8
				c3.6,1.4,7.7,0.7,9.9-2.3c1.5-2.1,2.3-4.7,3.5-7c0.3-0.6,0.8-1.1,1.3-1.6c0.4,0.6,1.2,1.3,1.1,1.9c-0.7,7.6-6.6,12.3-13.5,12
				c-5.3-0.3-11.3-4.8-9.9-13.1c1.5-8.6,7-13.7,14.6-16.9C35.4-0.9,43.5,0.7,51,6c3.6,2.5,7.3,4.9,11.2,7c3.5,1.8,4.1,1.3,6.6-1.7
				c1.9-2.4,3.9-4.7,6.2-6.6c1.4-1.2,3.3-1.8,5.1-2.2c3.1-0.7,4.8,1.5,3.8,4.6c-1.1,3.1-3.5,5.1-6.1,6.8c-1.4,0.9-2.9,1.7-4.5,2
				c-2.2,0.5-3.6,1.6-4.6,3.6c-1.8,3.6-3.8,7.1-5.7,10.6c-0.2,0.3-0.2,0.7-0.4,1.7c2.1-0.5,3.8-0.8,5.4-1.3c6.6-2,11.9-6.3,17-10.7
				c5.5-4.8,10.7-9.9,17.3-13.3c3.1-1.6,6.3-2.1,9.7-1.7c7.3,0.9,7.8,8.7,5.1,12.8c-2.2,3.5-5.7,5.1-9.8,5.5c-0.4,0-1,0.1-1.3-0.1
				c-0.5-0.3-0.9-0.9-1.3-1.3c0.5-0.3,0.9-0.6,1.4-0.8c2.4-1,5-1.7,7.2-3c1.1-0.6,2-2.2,2.4-3.5c1.3-4.3-2.7-7.8-7.3-6.5
				c-4.6,1.3-8.2,4.2-11.7,7.3c-3,2.6-5.8,5.3-8.8,7.9c-7.8,6.7-10.3,7.9-21,10.7c0.1,0.3,0.2,0.7,0.4,0.8
				c6.6,3.4,6.9,11.9,4.6,17.3c-2.5,5.8-5.7,11.3-8.6,17c-0.9,1.8-2.1,3.6-2.7,5.5c-0.3,1.2-0.1,3.2,0.7,3.8
				c0.8,0.6,3.1,0.6,3.8-0.1c2.9-2.9,6.2-5.8,8-9.4c3.4-6.6,7.9-11.2,15.4-12.6c2.4-0.4,4.3,0.3,5.8,2.2
				C96.3,56.5,97.1,56.3,101.1,57z M76.3,75.8c0.4,1,0.6,2.5,1.3,2.8c1,0.4,2.6,0.3,3.6-0.2c1.2-0.6,2.4-1.7,3.2-2.9
				c2.6-4.2,5.2-8.5,7.6-12.9c0.5-0.8,0.6-2.4,0.1-3.1c-0.8-1.1-2.3-1.7-3.8-0.8C81.6,62.5,78.4,68.5,76.3,75.8z M163.3,88.3
				c-0.2-0.2-0.3-0.4-0.5-0.6c-4.8,1.8-9.9,3-14.1,6.3c-2.5,2-3.2,4.6-1.9,6.3c1.2,1.4,4.3,1.6,6.4-0.3c2.5-2.2,4.7-4.9,6.9-7.4
				C161.4,91.2,162.3,89.7,163.3,88.3z M136.8,49c0.3,0.2,0.6,0.4,0.9,0.6c2.3-2.4,4.7-4.7,6.8-7.2c1.7-2.1,3.2-4.4,4.4-6.8
				c0.4-0.9-0.1-2.3-0.3-3.5c-1.1,0.5-2.5,0.8-3.2,1.6c-1.6,2.2-3,4.5-4.3,6.9C139.6,43.4,138.2,46.2,136.8,49z M144,65.9
				c1-0.2,2-0.2,2.9-0.5c2.7-0.9,5.4-1.6,6.9-4.3c0.3-0.5,0.3-1.4,0-1.8c-0.4-0.5-1.3-1-1.9-0.9C149.5,58.7,144.8,62.3,144,65.9z
				 M72.3,12.7c0.2,0.3,0.5,0.6,0.7,0.8c3.3-1.1,6-3.2,7.9-6.1c0.4-0.6,0.3-1.6,0.5-2.4c-0.9,0.1-2.1-0.2-2.6,0.3
				C76.6,7.7,74.5,10.2,72.3,12.7z"/>
		</g>
		<path class="st0" d="M123.1,44.6c-0.3,2.4-1.1,3.5-2.8,3.5c-1.5-0.1-2.5-1-2.5-2.6c0-1.8,1.1-2.8,2.6-2.6
			C121.5,43,122.4,44.1,123.1,44.6z"/>
	</g>
	<g>
		<g>
			<path class="st0" d="M758.3,80.9c0.3-1.1,0.6-2.2,1-3.5c-2.6,2.3-5,4.1-8.6,3.9c-3.6-0.2-6.1-2.8-5-6.2c0.9-2.6,2.6-5,4-7.4
				c0.9-1.5,2.2-2.9,2.9-4.5c0.4-0.8,0.3-2.2-0.3-2.8c-0.5-0.5-2-0.5-2.7,0c-3.9,2.2-6.2,6-8.6,9.6c-2,3-3.8,6.3-5.9,9.3
				c-0.7,0.9-2,1.5-3.2,1.9c-1.5,0.4-2.5-0.2-1.9-2.2c-5,3.2-10.3,3.9-12.9-1.9c-0.9,0.7-1.8,1.4-2.6,2.1c-2.2,2-4.9,2.4-7.8,2
				c-3.1-0.5-3.4-3.2-3.9-6c-0.7,0.7-1.2,1.4-1.9,1.8c-2,1.3-3.9,3-6.1,3.6c-6.3,1.8-9.3-3.6-8.1-7.8c1.2-4.3,3.2-8.5,5.5-12.4
				c6.1-10.5,12.7-20.8,18.9-31.3c2.4-4,4.5-8.3,4.5-13.2c0-4-2.7-5.6-6.3-4c-4.4,2-7,5.9-9.3,9.8C695,30.4,690,39.5,685,48.5
				c-5.7,10.2-11.4,20.5-17,30.8c-1.5,2.7-3.8,1.6-6.5,1.9c0.5-1.5,0.8-2.8,1.4-3.8c8.3-15.4,16.8-30.7,25.1-46.1
				c2.3-4.2,4.4-8.5,6.1-12.9c0.7-1.9,0.6-4.4,0.2-6.6c-0.6-2.7-2.9-3.7-5.6-2.7c-3.6,1.3-6,4-7.8,7.1C676.2,24,671.8,32,667.3,40
				c-7.3,13.1-14.4,26.2-21.7,39.2c-1,1.7-3.9,2.7-5.6,1.8c-0.4-0.2-0.6-1.5-0.3-2c1.6-3.3,3.4-6.5,5.2-9.7
				c8.4-15.6,16.9-31.1,25.3-46.7c1.3-2.4,2.1-5.1,3-7.7c1.1-3,0.5-5.9-1.9-8c-2.6-2.3-5.7-1.9-8.7-0.7c-6.9,2.8-11.6,8.1-15.1,14.4
				c-1.5,2.7-2.9,5.4-2.7,8.6c0.1,3.1,2.3,4.4,5,2.9c3.3-1.8,5-4.9,6.7-7.9c1.2-2.1,2.3-4.3,3.5-6.4c0.3,0,0.6,0.1,0.9,0.1
				c0,0.9,0.3,1.9,0,2.6c-1.9,4.5-4.2,8.8-7.9,12.1c-2.8,2.4-6.1,2.9-8.7,1.4c-2.2-1.3-3.8-5.4-2.9-8.4c3.2-10.7,9.8-18.4,20.7-21.8
				c4-1.2,8.3-1.1,12,1.5c2.5,1.8,4,4.2,4.1,7.4c0,0.4,0.2,0.8,0.2,1.3c0.3,0.2,0.6,0.5,0.9,0.7c0.3-0.7,0.6-1.5,1.1-2.1
				c2.4-3.1,5.3-5.4,9.3-6.1c4.9-0.8,9,2.4,9.1,7.4c0,1.4,0,2.8,0.4,4.5c0.5-0.6,1-1.1,1.4-1.7c2.7-3.4,5.6-6.4,10-7.5
				c4.9-1.2,9.2,1.2,9.5,6.7c0.4,7.1-2.2,13.2-5.7,19c-5.7,9.7-11.7,19.1-17.5,28.7c-2,3.3-3.5,6.9-5.1,10.4
				c-0.6,1.4-0.7,2.8,0.6,3.9c1.3,1.1,2.9,0.6,3.9-0.3c2-1.6,4-3.4,5.6-5.4c3.4-4.4,6.5-9.1,9.7-13.7c1-1.4,4.6-2.5,5.7-1.4
				c0.4,0.4,0.2,1.7-0.1,2.3c-2.5,4.6-5.2,9.1-7.8,13.6c-0.9,1.6-2.6,3.6-0.5,5.2c2,1.4,3.9-0.4,5-1.8c3.2-4.1,6.1-8.5,9-12.8
				c0.8-1.2,1.6-2.5,2.2-3.9c1-2.3,2.6-3.2,5.1-2.9c2.2,0.2,2.5,0.5,1.4,2.5c-2.4,4.3-4.8,8.6-7.2,12.9c-0.5,0.8-1.2,1.7-1.3,2.6
				c-0.2,1.2,0,2.5,0,3.7c1.3-0.2,3,0.1,3.7-0.6c3.2-3.4,6.4-6.9,9.2-10.6c1.7-2.3,2.7-5.1,4.1-7.7c1.7-3.1,1.9-3.2,6.3-2.5
				c-0.2,1.1-0.5,2.2-0.8,3.6c1.4-1,2.4-1.9,3.6-2.6c2.5-1.6,5.7-1.5,7.3,0.1c1.5,1.4,1.8,4.5,0.4,7.1c-1.6,2.9-3.5,5.6-5.2,8.4
				c-0.9,1.5-2.5,3.2-0.7,4.8c1.6,1.4,3.2-0.2,4.5-1.3c4.7-4.1,8.4-8.9,11.4-14.3c0.7-1.2,1.3-2.5,2-3.8c1.2-2.1,3-2.9,5.2-2.1
				c0.4,0.1,0.7,1,0.6,1.4c-0.1,0.7-0.5,1.3-0.7,2c2-1.1,3.9-2.2,5.9-3c1.9-0.8,3.8-0.4,5.2,1c1.6,1.5,1.6,3.6,0.8,5.4
				c-1,2.4-2.4,4.6-3.7,6.8c-0.9,1.5-2.1,3-2.8,4.6c-0.4,0.9-0.1,2.1-0.1,3.2c1.1,0,2.6,0.4,3.3-0.1c2.3-1.8,4.4-4,6.5-6
				c0.3-0.2,0.3-0.7,0.5-1c0.2,0.1,0.4,0.2,0.6,0.3c0,0.7,0.1,1.5-0.2,2.2c-1,3.3-6.8,7.1-10.2,7.5c-5.6,0.6-7.2-4.5-5.1-8.5
				c1.1-2.2,2.9-4.2,4.3-6.3c0.8-1.2,1.7-2.3,2.1-3.6c0.3-0.8,0.1-2.1-0.5-2.6c-0.5-0.4-2.1-0.4-2.6,0.1c-2.3,2-4.6,4.1-6.4,6.5
				c-2.8,3.8-5.4,7.7-7.7,11.8C762.8,81.2,761,81.6,758.3,80.9z"/>
			<path class="st0" d="M536.6,53c2.9-1.3,5.8-2.5,8.7-3.8c0.1,0.2,0.3,0.4,0.4,0.6c-0.5,0.6-0.9,1.4-1.6,1.7
				c-2.3,1.1-4.7,2.2-7.2,3c-1.7,0.6-2.9,1.3-3.9,2.9c-5.7,9.1-11.4,18.2-17.5,27.1c-3.5,5.1-8.1,9.4-14.2,11.6c-3,1-6,1.3-9,0.3
				c-3.6-1.1-5.5-4.7-4.9-9c0.7-5.5,3.7-9.7,7.8-13.2c7.3-6.4,15.9-9.5,25.6-9.5c0.6,0,1.6-0.1,1.8-0.5c1.7-2.7,3.3-5.6,5.1-8.5
				c-2.5-0.5-4.6-0.8-6.7-1.4c-12.1-3.4-17.2-14-12.4-26.1c4.6-11.5,13.4-18.5,25.3-21.3c3.5-0.8,7.4-0.8,11.1-0.6
				c5.5,0.4,9.1,6,7.2,11.8c-1.8,5.6-4.3,11-6.8,16.3c-2.9,6.1-6.2,11.9-9.3,17.9C536.3,52.5,536.5,52.7,536.6,53z M512.4,36.8
				c0.2,1.7,0.2,3.4,0.7,5c1.8,6.1,6,9.6,12.1,11c3.7,0.8,3.7,0.8,5.5-2.5c2.9-5.4,6-10.7,8.8-16.1c3.2-6.2,6.3-12.4,9.1-18.7
				c1.5-3.3,0-6.3-3.6-7.1c-2.3-0.6-5-0.7-7.3-0.3C523.7,10.8,512.2,24.6,512.4,36.8z M520.9,66.7c-0.6-0.1-1-0.3-1.4-0.2
				c-6.6,0.8-12.9,2.2-18.5,6c-4.9,3.4-9.2,7.1-11.2,13c-1.3,3.7-0.5,7.5,2.3,8.3c1.7,0.5,3.9,0.6,5.4-0.2c2.7-1.3,5.3-3,7.6-5
				c6.4-5.8,10.9-13.2,15.5-20.5C520.7,67.7,520.8,67.3,520.9,66.7z"/>
			<path class="st0" d="M558.3,72.1c-3-0.7-4.8,0.2-6.4,2.5c-2.9,4.1-6.6,7-12.2,6.7c-3.7-0.2-5.8-2.3-6.4-6
				c-1.3-7.9,6.1-16.9,14-18.6c0.7-0.2,1.5-0.4,2.2-0.5c4.3-0.7,7.7,2.1,7.5,6.4c-0.1,2.4-1,4.8-1.5,7.2c2.8,0.6,3.9,0.1,5.3-2.5
				c4.3-8,8.6-16.1,12.9-24.1c1.9-3.5,2.2-3.6,6.9-2.9c-3,6.9-7.4,12.9-10.5,19.4c2.3-0.8,4.4-1.8,6.7-2.2c4.8-0.8,6.6,3.3,5,7.3
				c-0.9,2.3-2.5,4.4-3.9,6.5c-0.5,0.8-1.1,1.4-1.6,2.2c-1,1.5-2.7,3.4-0.9,4.9c1.7,1.5,3.5-0.3,4.9-1.5c5.3-4.9,9.4-10.6,12.6-17
				c1.7-3.4,2.4-3.6,6.5-2.6c-0.3,1-0.6,2.1-1.1,3.5c0.8-0.6,1.3-0.9,1.7-1.2c0.9-0.6,1.7-1.3,2.6-1.7c2.3-1,4.7-1.4,6.7,0.4
				c2,1.8,1.8,4.3,0.7,6.5c-1.5,2.9-3.4,5.6-5.1,8.4c-0.6,1-1.3,2.1-1.6,3.2c-0.5,2,0.7,3.2,2.6,2.4c1.8-0.8,3.4-2.1,4.9-3.4
				c1.3-1.1,2.3-2.5,3.9-3.7c-0.1,0.7,0,1.5-0.2,2.2c-1.3,3.7-6.7,7.4-10.6,7.4c-4.5,0-6.8-3.3-5.1-7.5c0.8-1.8,2-3.5,3.1-5.2
				c1.1-1.7,2.5-3.2,3.4-5c0.4-0.9,0-2.2,0-3.3c-1,0.1-2.4-0.2-3,0.3c-2.2,2-4.4,4-6.2,6.4c-2.7,3.7-5.3,7.6-7.6,11.6
				c-1.4,2.5-3.2,3-6,2.3c0.2-1,0.5-2,0.7-3.1c0.1,0.2,0.1,0.4,0.2,0.6c-2.6,0.9-5.1,2.2-7.7,2.7c-4.1,0.9-7-2.7-5.3-7.2
				c0.8-2.3,2.5-4.2,3.8-6.3c0.9-1.4,2.1-2.8,2.8-4.3c0.3-0.8,0.1-2.1-0.4-2.8c-0.3-0.4-1.8-0.3-2.5,0c-3.7,1.7-6.2,4.9-8.4,8.2
				c-2.1,3.2-3.9,6.5-5.9,9.8c-0.3,0.6-0.6,1.5-1,1.7c-1.3,0.4-2.8,0.5-4.2,0.8c0.1-1,0-2.1,0.4-3C556.1,75.9,557.3,74,558.3,72.1z
				 M555.3,62c-0.9-1.2-1.4-2.2-2.2-2.8c-2.4-1.7-4.5-0.3-6.3,1.1c-4.2,3.2-6.8,7.7-8.3,12.7c-0.5,1.7-1,4,0.9,5.4
				c1.9,1.4,4,0.7,5.6-0.5c2.1-1.7,3.9-3.8,5.8-5.9c0.3-0.4,0.3-1.4-0.1-1.9C548,65.6,549.4,62.4,555.3,62z M553,63.9
				c-2.3,1.4-2.3,3.1-0.1,4.5C553.9,66.9,555,65.5,553,63.9z"/>
		</g>
		<path class="st0" d="M454.7,31.2c-2.2-4.5-2.6-9.1-1-13.8c2-5.7,8.8-10.6,14.9-10.7c1.4,0,2.9,0,4.3,0.2c3.2,0.5,5.6,2,6.6,5.2
			c1.1,3.5,0.5,6.7-1.9,9.5c-2.4,2.7-5.6,3.8-9.1,4c-0.5,0-1.1-0.6-1.7-1c0.5-0.3,1.1-0.9,1.6-1c2.6-0.5,5-1.3,6.8-3.3
			c2.3-2.5,2.9-6,1.5-8.2c-1.8-2.9-4.7-4-8.3-3.1c-6,1.5-10.9,7.7-10.9,14.1c0,2.1,0.4,4.2,0.8,6.2c0.3,1.3,1.1,2.2,2.6,2
			c0.3,0,0.6,0,0.8,0c1.4,0.3,3,0.7,2.7,2.4c-0.3,1.7-2,1.4-3.2,1.3c-2.1-0.2-4.3-1.1-6.4-0.7c-2.6,0.4-5.2,1.5-7.6,2.7
			c-8.1,4.2-13.3,10.7-15,19.9c-1.6,8.7,3.7,18.2,11.5,20.4c8.7,2.4,18.1-1.5,22.7-9.5c2.1-3.7,3.7-7.6,3.6-11.9
			c0-0.9-0.2-1.8-0.4-2.6c-1.6-5.6-2.4-6.1-7.9-4.4c-4,1.3-8,2.6-11.9,4.1c-3.6,1.3-5.6,4.1-5.5,7.3c0.1,3.1,3.3,5.2,6.2,4.1
			c3-1.1,4.9-3.4,6.1-6.2c0.2-0.6,0.4-1.2,0.8-1.6c0.2-0.3,0.8-0.4,1.2-0.3c0.2,0,0.5,0.7,0.4,0.9c-0.7,3.5-2.5,6.5-5.6,8.4
			c-2.8,1.7-5.8,1.8-8.7,0c-2.9-1.8-4-5.7-2.3-9.9c0.8-1.9,2.5-3.7,4.2-5.1c4.1-3.2,9.1-4.5,14-5.9c6.8-2,13.6-4,20.4-6.2
			c1.6-0.5,3-1.5,4.4-2.5c1.7-1.3,2.2-3.3,1.3-4.7c-1.1-1.6-2.7-1.6-4.4-1.2c-0.7,0.1-1.3,0.4-2,0.4c-0.4,0-0.8-0.4-1.2-0.6
			c0.2-0.4,0.4-0.9,0.7-1.1c1.6-1,6.6-0.8,8.1,0.3c1.7,1.3,2.3,4,1.3,6.5c-1.4,3.7-4.5,5.5-7.8,7c-2.5,1.1-5.2,2-7.8,2.8
			c-1.3,0.4-1.8,0.8-1.1,2.2c5.6,11.6-0.8,25.8-13.6,30.4c-7.1,2.6-14.4,2.6-21.3-1.2c-6.8-3.7-9.9-9.9-10.5-17.4
			c-1-13.6,7.7-22.6,18.6-26.3C448.6,32.6,451.5,32.1,454.7,31.2z"/>
	</g>
</g>
</svg>
